<?xml version="1.0" encoding="UTF-8" standalone="no"?>
<!-- Created with Inkscape (http://www.inkscape.org/) -->

<svg
   xmlns:dc="http://purl.org/dc/elements/1.1/"
   xmlns:cc="http://creativecommons.org/ns#"
   xmlns:rdf="http://www.w3.org/1999/02/22-rdf-syntax-ns#"
   xmlns:svg="http://www.w3.org/2000/svg"
   xmlns="http://www.w3.org/2000/svg"
   xmlns:xlink="http://www.w3.org/1999/xlink"
   xmlns:sodipodi="http://sodipodi.sourceforge.net/DTD/sodipodi-0.dtd"
   xmlns:inkscape="http://www.inkscape.org/namespaces/inkscape"
   width="410.12482"
   height="89.097443"
   id="svg2"
   version="1.1"
   inkscape:version="0.48.4 r9939"
   sodipodi:docname="logo_sealious_logo_1.svg">
  <defs
     id="defs4">
    <linearGradient
       inkscape:collect="always"
       id="linearGradient3962">
      <stop
         style="stop-color:#000000;stop-opacity:1;"
         offset="0"
         id="stop3964" />
      <stop
         style="stop-color:#000000;stop-opacity:0;"
         offset="1"
         id="stop3966" />
    </linearGradient>
    <linearGradient
       inkscape:collect="always"
       xlink:href="#linearGradient3962"
       id="linearGradient3970"
       x1="695.30212"
       y1="-725.88995"
       x2="984.98114"
       y2="-725.88995"
       gradientUnits="userSpaceOnUse" />
  </defs>
  <sodipodi:namedview
     id="base"
     pagecolor="#ffffff"
     bordercolor="#666666"
     borderopacity="1.0"
     inkscape:pageopacity="0.0"
     inkscape:pageshadow="2"
     inkscape:zoom="0.98994948"
     inkscape:cx="192.50501"
     inkscape:cy="55.96375"
     inkscape:document-units="px"
     inkscape:current-layer="g3969"
     showgrid="false"
     inkscape:window-width="1280"
     inkscape:window-height="749"
     inkscape:window-x="0"
     inkscape:window-y="25"
     inkscape:window-maximized="1"
     fit-margin-top="0"
     fit-margin-left="0"
     fit-margin-right="0"
     fit-margin-bottom="0" />
  <metadata
     id="metadata7">
    <rdf:RDF>
      <cc:Work
         rdf:about="">
        <dc:format>image/svg+xml</dc:format>
        <dc:type
           rdf:resource="http://purl.org/dc/dcmitype/StillImage" />
        <dc:title></dc:title>
      </cc:Work>
    </rdf:RDF>
  </metadata>
  <g
     inkscape:label="Layer 1"
     inkscape:groupmode="layer"
     id="layer1"
     transform="translate(-1620.238,487.54535)">
    <g
       id="g3949"
       transform="translate(1.0004253e-4,181.57496)">
      <path
         inkscape:export-ydpi="90"
         inkscape:export-xdpi="90"
         inkscape:export-filename="/home/arkadiusz/Desktop/path2996.png"
         sodipodi:nodetypes="ccczcccszsccc"
         inkscape:connector-curvature="0"
         id="path3044-79-8-1-4-7-9-1-5-7-1-7-8-14-0-8-4-4-8"
         d="m 1718.9351,-989.39763 c -17.4785,38.80739 5.0602,42.24179 0.7988,66.03839 -28.6926,-35.5221 -17.7746,-7.7056 -44.5292,-12.6362 -12.4288,-1.8239 -28.1051,-3.2986 -34.4242,-3.758 -6.3191,-0.4593 -11.1901,0.6438 -18.2848,16.9509 -2.3931,-5.1133 -4.9005,-18.1657 3.9625,-23.2344 -1.0501,-10.8754 2.6332,-16.0835 8.2078,-21.22999 1.4156,7.25659 -0.3296,14.48469 4.0892,17.63049 2.7116,1.9305 11.0751,-0.1884 18.8686,-4.0042 7.7934,-3.8157 19.5072,-16.21999 28.4218,-26.73709 6.3427,-7.4829 11.1681,-14.5467 12.8485,-18.639 4.9601,-14.97517 18.8579,-10.45607 29.7358,-12.88327 5.9395,0.774 -2.7904,15.53347 -9.6948,22.50237 z"
         style="fill:#394359;fill-opacity:1;fill-rule:nonzero;stroke:none" />
      <text
         sodipodi:linespacing="125%"
         id="text3039-9-8-7"
         y="-941.73981"
         x="1738.4467"
         style="font-size:46.8049736px;font-style:normal;font-variant:normal;font-weight:normal;font-stretch:normal;line-height:125%;letter-spacing:0px;word-spacing:0px;fill:#ba6c65;fill-opacity:1;stroke:none;font-family:Encode Sans;-inkscape-font-specification:Encode Sans"
         xml:space="preserve"><tspan
           style="font-size:84.24895477px;font-style:normal;font-variant:normal;font-weight:300;font-stretch:normal;fill:#ba6c65;fill-opacity:1;stroke:none;font-family:Neris;-inkscape-font-specification:Neris Light"
           y="-941.73981"
           x="1738.4467"
           id="tspan3041-36-0-1"
           sodipodi:role="line">sealious</tspan></text>
    </g>
    <g
       id="g3974"
       transform="translate(1e-4,-12)">
      <path
         inkscape:export-ydpi="90"
         inkscape:export-xdpi="90"
         inkscape:export-filename="/home/arkadiusz/Desktop/path2996.png"
         sodipodi:nodetypes="ccczcccszsccc"
         inkscape:connector-curvature="0"
         id="path3044-79-8-1-4-7-9-1-5-7-1-7-8-14-0-8-2-9-9-3"
         d="m 1718.9351,-338.78316 c -17.4785,38.8074 5.0602,42.2418 0.7988,66.0384 -28.6926,-35.5221 -17.7746,-7.7056 -44.5292,-12.6362 -12.4288,-1.8239 -28.1051,-3.2986 -34.4242,-3.758 -6.3191,-0.4593 -11.1901,0.6438 -18.2848,16.9509 -2.3931,-5.1133 -4.9005,-18.1657 3.9625,-23.2344 -1.0501,-10.8754 2.6332,-16.0835 8.2078,-21.23 1.4156,7.2566 -0.3296,14.4847 4.0892,17.6305 2.7116,1.9305 11.0751,-0.1884 18.8686,-4.0042 7.7934,-3.8157 19.5072,-16.22 28.4218,-26.7371 6.3427,-7.4829 11.1681,-14.5467 12.8485,-18.639 4.9601,-14.97509 18.8579,-10.45599 29.7358,-12.88319 5.9395,0.774 -2.7904,15.53339 -9.6948,22.50229 z"
         style="fill:#000000;fill-opacity:1;fill-rule:nonzero;stroke:none" />
      <text
         sodipodi:linespacing="125%"
         id="text3039-4-1-1-9"
         y="-291.12531"
         x="1738.4467"
         style="font-size:46.8049736px;font-style:normal;font-variant:normal;font-weight:normal;font-stretch:normal;line-height:125%;letter-spacing:0px;word-spacing:0px;fill:#000000;fill-opacity:1;stroke:none;font-family:Encode Sans;-inkscape-font-specification:Encode Sans"
         xml:space="preserve"><tspan
           style="font-size:84.24895477px;font-style:normal;font-variant:normal;font-weight:300;font-stretch:normal;fill:#000000;fill-opacity:1;stroke:none;font-family:Neris;-inkscape-font-specification:Neris Light"
           y="-291.12531"
           x="1738.4467"
           id="tspan3041-7-5-5-5"
           sodipodi:role="line">sealious</tspan></text>
    </g>
    <rect
       style="fill:#394359;fill-opacity:1;fill-rule:nonzero;stroke:none"
       id="rect3835-9-0-6"
       width="521.23871"
       height="179.80716"
       x="1589.9333"
       y="-258.64035" />
    <g
       id="g3019">
      <path
         inkscape:export-ydpi="90"
         inkscape:export-xdpi="90"
         inkscape:export-filename="/home/arkadiusz/Desktop/path2996.png"
         sodipodi:nodetypes="ccczcccszsccc"
         inkscape:connector-curvature="0"
         id="path3044-79-8-1-4-7-9-1-5-7-1-7-8-14-0-8-2-4-2-1-3"
         d="m 1726.6306,-187.75274 c -17.4785,38.8074 5.0602,42.2418 0.7988,66.0384 -28.6926,-35.5221 -17.7746,-7.7056 -44.5292,-12.6362 -12.4288,-1.8239 -28.1051,-3.2986 -34.4242,-3.758 -6.3191,-0.4593 -11.1901,0.6438 -18.2848,16.9509 -2.3931,-5.1133 -4.9005,-18.1657 3.9625,-23.2344 -1.0501,-10.8754 2.6332,-16.0835 8.2078,-21.23 1.4156,7.2566 -0.3296,14.4847 4.0892,17.6305 2.7116,1.9305 11.0751,-0.1884 18.8686,-4.0042 7.7934,-3.8157 19.5072,-16.22 28.4218,-26.7371 6.3427,-7.4829 11.1681,-14.5467 12.8485,-18.639 4.9601,-14.9751 18.8579,-10.456 29.7358,-12.8832 5.9395,0.774 -2.7904,15.5334 -9.6948,22.5023 z"
         style="fill:#ffffff;fill-opacity:1;fill-rule:nonzero;stroke:none" />
      <text
         sodipodi:linespacing="125%"
         id="text3039-4-6-9-2-2"
         y="-140.09482"
         x="1746.1422"
         style="font-size:46.8049736px;font-style:normal;font-variant:normal;font-weight:normal;font-stretch:normal;line-height:125%;letter-spacing:0px;word-spacing:0px;fill:#ffffff;fill-opacity:1;stroke:none;font-family:Encode Sans;-inkscape-font-specification:Encode Sans"
         xml:space="preserve"><tspan
           style="font-size:84.24895477px;font-style:normal;font-variant:normal;font-weight:300;font-stretch:normal;fill:#ffffff;fill-opacity:1;stroke:none;font-family:Neris;-inkscape-font-specification:Neris Light"
           y="-140.09482"
           x="1746.1422"
           id="tspan3041-7-8-4-8-4"
           sodipodi:role="line">sealious</tspan></text>
    </g>
    <g
       id="g3954"
       transform="translate(1e-4,-56)">
      <path
         inkscape:export-ydpi="90"
         inkscape:export-xdpi="90"
         inkscape:export-filename="/home/arkadiusz/Desktop/path2996.png"
         sodipodi:nodetypes="ccczcccszsccc"
         inkscape:connector-curvature="0"
         id="path3044-79-8-1-4-7-9-1-5-7-1-7-8-14-0-8-3-9-4-9"
         d="m 1718.9351,-866.08264 c -17.4785,38.8074 5.0602,42.2418 0.7988,66.03839 -28.6926,-35.52209 -17.7746,-7.7056 -44.5292,-12.6362 -12.4288,-1.8239 -28.1051,-3.2986 -34.4242,-3.758 -6.3191,-0.4593 -11.1901,0.6438 -18.2848,16.9509 -2.3931,-5.1133 -4.9005,-18.1657 3.9625,-23.23439 -1.0501,-10.8754 2.6332,-16.0835 8.2078,-21.23 1.4156,7.2566 -0.3296,14.4847 4.0892,17.6305 2.7116,1.9305 11.0751,-0.1884 18.8686,-4.0042 7.7934,-3.8157 19.5072,-16.22 28.4218,-26.7371 6.3427,-7.4829 11.1681,-14.5467 12.8485,-18.639 4.9601,-14.9751 18.8579,-10.456 29.7358,-12.8832 5.9395,0.774 -2.7904,15.5334 -9.6948,22.5023 z"
         style="fill:#394359;fill-opacity:1;fill-rule:nonzero;stroke:none" />
      <text
         sodipodi:linespacing="125%"
         id="text3039-8-8-5-5"
         y="-818.42474"
         x="1738.4467"
         style="font-size:46.8049736px;font-style:normal;font-variant:normal;font-weight:normal;font-stretch:normal;line-height:125%;letter-spacing:0px;word-spacing:0px;fill:#77ba65;fill-opacity:1;stroke:none;font-family:Encode Sans;-inkscape-font-specification:Encode Sans"
         xml:space="preserve"><tspan
           style="font-size:84.24895477px;font-style:normal;font-variant:normal;font-weight:300;font-stretch:normal;fill:#77ba65;fill-opacity:1;stroke:none;font-family:Neris;-inkscape-font-specification:Neris Light"
           y="-818.42474"
           x="1738.4467"
           id="tspan3041-3-9-8-9"
           sodipodi:role="line">sealious</tspan></text>
    </g>
    <g
       id="g3964"
       transform="translate(-2.1540001,3.5755828)">
      <path
         inkscape:export-ydpi="90"
         inkscape:export-xdpi="90"
         inkscape:export-filename="/home/arkadiusz/Desktop/path2996.png"
         sodipodi:nodetypes="ccczcccszsccc"
         inkscape:connector-curvature="0"
         id="path3044-79-8-1-4-7-9-1-5-7-1-7-8-14-0-8-3-9-4-9-7"
         d="m 1721.0892,-582.87848 c -17.4785,38.80745 5.0602,42.24185 0.7988,66.03844 -28.6926,-35.52209 -17.7746,-7.7056 -44.5292,-12.6362 -12.4288,-1.8239 -28.1051,-3.2986 -34.4242,-3.758 -6.3191,-0.4593 -11.1901,0.6438 -18.2848,16.9509 -2.3931,-5.1133 -4.9005,-18.1657 3.9625,-23.23439 -1.0501,-10.8754 2.6332,-16.0835 8.2078,-21.23005 1.4156,7.25665 -0.3296,14.48475 4.0892,17.63055 2.7116,1.9305 11.0751,-0.1884 18.8686,-4.0042 7.7934,-3.8157 19.5072,-16.22005 28.4218,-26.73715 6.3427,-7.4829 11.1681,-14.5467 12.8485,-18.639 4.9601,-14.9751 18.8579,-10.456 29.7358,-12.8832 5.9395,0.774 -2.7904,15.5334 -9.6948,22.5023 z"
         style="fill:#388fa5;fill-opacity:1;fill-rule:nonzero;stroke:none" />
      <text
         sodipodi:linespacing="125%"
         id="text3039-8-8-5-5-9"
         y="-535.22058"
         x="1740.6007"
         style="font-size:46.8049736px;font-style:normal;font-variant:normal;font-weight:normal;font-stretch:normal;line-height:125%;letter-spacing:0px;word-spacing:0px;fill:#4d394b;fill-opacity:1;stroke:none;font-family:Encode Sans;-inkscape-font-specification:Encode Sans"
         xml:space="preserve"><tspan
           style="font-size:84.24895477px;font-style:normal;font-variant:normal;font-weight:300;font-stretch:normal;fill:#4d394b;fill-opacity:1;stroke:none;font-family:Neris;-inkscape-font-specification:Neris Light"
           y="-535.22058"
           x="1740.6007"
           id="tspan3041-3-9-8-9-6"
           sodipodi:role="line">sealious</tspan></text>
    </g>
    <g
       id="g3959"
       transform="translate(3.5603001,30.458628)">
      <path
         inkscape:export-ydpi="90"
         inkscape:export-xdpi="90"
         inkscape:export-filename="/home/arkadiusz/Desktop/path2996.png"
         sodipodi:nodetypes="ccczcccszsccc"
         inkscape:connector-curvature="0"
         id="path3044-79-8-1-4-7-9-1-5-7-1-7-8-14-0-8-3-9-4-9-7-8"
         d="m 1715.3749,-724.02137 c -17.4785,38.80749 5.0602,42.24189 0.7988,66.03848 -28.6926,-35.52209 -17.7746,-7.7056 -44.5292,-12.6362 -12.4288,-1.8239 -28.1051,-3.2986 -34.4242,-3.758 -6.3191,-0.4593 -11.1901,0.6438 -18.2848,16.9509 -2.3931,-5.1133 -4.9005,-18.1657 3.9625,-23.23439 -1.0501,-10.8754 2.6332,-16.0835 8.2078,-21.23009 1.4156,7.25669 -0.3296,14.48479 4.0892,17.63059 2.7116,1.9305 11.0751,-0.1884 18.8686,-4.0042 7.7934,-3.8157 19.5072,-16.22009 28.4218,-26.73719 6.3427,-7.4829 11.1681,-14.5467 12.8485,-18.639 4.9601,-14.9751 18.8579,-10.456 29.7358,-12.8832 5.9395,0.774 -2.7904,15.5334 -9.6948,22.5023 z"
         style="fill:#388fa5;fill-opacity:1;fill-rule:nonzero;stroke:none" />
      <text
         sodipodi:linespacing="125%"
         id="text3039-8-8-5-5-9-0"
         y="-676.3634"
         x="1734.8865"
         style="font-size:46.8049736px;font-style:normal;font-variant:normal;font-weight:normal;font-stretch:normal;line-height:125%;letter-spacing:0px;word-spacing:0px;fill:#388fa5;fill-opacity:1;stroke:none;font-family:Encode Sans;-inkscape-font-specification:Encode Sans"
         xml:space="preserve"><tspan
           style="font-size:84.24895477px;font-style:normal;font-variant:normal;font-weight:300;font-stretch:normal;fill:#388fa5;fill-opacity:1;stroke:none;font-family:Neris;-inkscape-font-specification:Neris Light"
           y="-676.3634"
           x="1734.8865"
           id="tspan3041-3-9-8-9-6-9"
           sodipodi:role="line">sealious</tspan></text>
    </g>
    <g
       id="g3969"
       transform="translate(11.0146,-2.5016344)">
      <path
         inkscape:export-ydpi="90"
         inkscape:export-xdpi="90"
         inkscape:export-filename="/home/arkadiusz/Desktop/path2996.png"
         sodipodi:nodetypes="ccczcccszsccc"
         inkscape:connector-curvature="0"
         id="path3044-79-8-1-4-7-9-1-5-7-1-7-8-14-0-8-3-9-4-9-7-84"
         d="m 1707.9206,-462.54142 c -17.4785,38.80745 5.0602,42.24185 0.7988,66.03844 -28.6926,-35.52209 -17.7746,-7.7056 -44.5292,-12.6362 -12.4288,-1.8239 -28.1051,-3.2986 -34.4242,-3.758 -6.3191,-0.4593 -11.1901,0.6438 -18.2848,16.9509 -2.3931,-5.1133 -4.9005,-18.1657 3.9625,-23.23439 -1.0501,-10.8754 2.6332,-16.08355 8.2078,-21.23005 1.4156,7.2566 -0.3296,14.48475 4.0892,17.63055 2.7116,1.9305 11.0751,-0.1884 18.8686,-4.0042 7.7934,-3.8157 19.5072,-16.22005 28.4218,-26.73715 6.3427,-7.4829 11.1681,-14.5467 12.8485,-18.639 4.9601,-14.9751 18.8579,-10.456 29.7358,-12.8832 5.9395,0.774 -2.7904,15.5334 -9.6948,22.5023 z"
         style="fill:#394359;fill-opacity:1;fill-rule:nonzero;stroke:none" />
      <text
         sodipodi:linespacing="125%"
         id="text3039-8-8-5-5-9-1"
         y="-414.88354"
         x="1727.4321"
         style="font-size:46.8049736px;font-style:normal;font-variant:normal;font-weight:normal;font-stretch:normal;line-height:125%;letter-spacing:0px;word-spacing:0px;fill:#394359;fill-opacity:1;stroke:none;font-family:Encode Sans;-inkscape-font-specification:Encode Sans"
         xml:space="preserve"><tspan
           style="font-size:84.24895477px;font-style:normal;font-variant:normal;font-weight:300;font-stretch:normal;fill:#394359;fill-opacity:1;stroke:none;font-family:Neris;-inkscape-font-specification:Neris Light"
           y="-414.88354"
           x="1727.4321"
           id="tspan3041-3-9-8-9-6-0"
           sodipodi:role="line">sealious</tspan></text>
    </g>
  </g>
</svg>
