<?xml version="1.0" encoding="UTF-8" standalone="no"?>
<!-- Created with Inkscape (http://www.inkscape.org/) -->

<svg
   xmlns:dc="http://purl.org/dc/elements/1.1/"
   xmlns:cc="http://creativecommons.org/ns#"
   xmlns:rdf="http://www.w3.org/1999/02/22-rdf-syntax-ns#"
   xmlns:svg="http://www.w3.org/2000/svg"
   xmlns="http://www.w3.org/2000/svg"
   xmlns:xlink="http://www.w3.org/1999/xlink"
   xmlns:sodipodi="http://sodipodi.sourceforge.net/DTD/sodipodi-0.dtd"
   xmlns:inkscape="http://www.inkscape.org/namespaces/inkscape"
   width="412.12"
   height="89.097397"
   id="svg2"
   version="1.1"
   inkscape:version="0.48.4 r9939"
   sodipodi:docname="logo_sealious_white.svg">
  <defs
     id="defs4">
    <linearGradient
       inkscape:collect="always"
       id="linearGradient3962">
      <stop
         style="stop-color:#000000;stop-opacity:1;"
         offset="0"
         id="stop3964" />
      <stop
         style="stop-color:#000000;stop-opacity:0;"
         offset="1"
         id="stop3966" />
    </linearGradient>
    <linearGradient
       inkscape:collect="always"
       xlink:href="#linearGradient3962"
       id="linearGradient3970"
       x1="695.30212"
       y1="-725.88995"
       x2="984.98114"
       y2="-725.88995"
       gradientUnits="userSpaceOnUse" />
  </defs>
  <sodipodi:namedview
     id="base"
     pagecolor="#ffffff"
     bordercolor="#666666"
     borderopacity="1.0"
     inkscape:pageopacity="0.0"
     inkscape:pageshadow="2"
     inkscape:zoom="1.4"
     inkscape:cx="153.12431"
     inkscape:cy="6.9470923"
     inkscape:document-units="px"
     inkscape:current-layer="layer1"
     showgrid="false"
     inkscape:window-width="1280"
     inkscape:window-height="749"
     inkscape:window-x="0"
     inkscape:window-y="25"
     inkscape:window-maximized="1"
     fit-margin-top="0"
     fit-margin-left="0"
     fit-margin-right="0"
     fit-margin-bottom="0" />
  <metadata
     id="metadata7">
    <rdf:RDF>
      <cc:Work
         rdf:about="">
        <dc:format>image/svg+xml</dc:format>
        <dc:type
           rdf:resource="http://purl.org/dc/dcmitype/StillImage" />
        <dc:title />
      </cc:Work>
    </rdf:RDF>
  </metadata>
  <g
     inkscape:label="Layer 1"
     inkscape:groupmode="layer"
     id="layer1"
     transform="translate(-1627.9334,210.25504)">
    <g
       id="g3019">
      <path
         inkscape:export-ydpi="90"
         inkscape:export-xdpi="90"
         inkscape:export-filename="/home/arkadiusz/Desktop/path2996.png"
         sodipodi:nodetypes="ccczcccszsccc"
         inkscape:connector-curvature="0"
         id="path3044-79-8-1-4-7-9-1-5-7-1-7-8-14-0-8-2-4-2-1-3"
         d="m 1726.6306,-187.75274 c -17.4785,38.8074 5.0602,42.2418 0.7988,66.0384 -28.6926,-35.5221 -17.7746,-7.7056 -44.5292,-12.6362 -12.4288,-1.8239 -28.1051,-3.2986 -34.4242,-3.758 -6.3191,-0.4593 -11.1901,0.6438 -18.2848,16.9509 -2.3931,-5.1133 -4.9005,-18.1657 3.9625,-23.2344 -1.0501,-10.8754 2.6332,-16.0835 8.2078,-21.23 1.4156,7.2566 -0.3296,14.4847 4.0892,17.6305 2.7116,1.9305 11.0751,-0.1884 18.8686,-4.0042 7.7934,-3.8157 19.5072,-16.22 28.4218,-26.7371 6.3427,-7.4829 11.1681,-14.5467 12.8485,-18.639 4.9601,-14.9751 18.8579,-10.456 29.7358,-12.8832 5.9395,0.774 -2.7904,15.5334 -9.6948,22.5023 z"
         style="fill:#ffffff;fill-opacity:1;fill-rule:nonzero;stroke:none" />
      <g
         style="font-size:46.8049736px;font-style:normal;font-variant:normal;font-weight:normal;font-stretch:normal;line-height:125%;letter-spacing:0px;word-spacing:0px;fill:#ffffff;fill-opacity:1;stroke:none;font-family:Encode Sans;-inkscape-font-specification:Encode Sans"
         id="text3039-4-6-9-2-2">
        <path
           d="m 1770.4059,-157.11311 c 3.8755,1.17949 5.6447,3.03297 5.6447,6.15018 0,4.12819 -3.6227,6.65566 -9.8571,6.65566 -4.4652,0 -8.3407,-0.67399 -11.2051,-1.68497 l -2.1905,-0.75825 c -0.4213,-0.16849 -0.7583,0 -0.9268,0.42125 l -1.1794,3.36996 c -0.1685,0.50549 0,0.84249 0.5054,1.01098 l 2.2748,0.75825 c 3.4542,1.26373 7.7509,1.93772 12.7216,1.93772 9.6886,0 15.3333,-4.38095 15.3333,-11.7106 0,-5.47618 -2.8645,-9.01464 -9.4359,-10.69962 l -9.7729,-2.78022 c -3.7912,-1.09523 -5.3919,-2.94871 -5.3919,-5.89742 0,-3.53846 3.2857,-5.89743 9.0146,-5.89743 2.9487,0 6.1502,0.42125 8.4249,1.09524 l 3.2015,0.92674 c 0.5055,0.16849 0.8425,-1e-5 1.011,-0.5055 l 0.9267,-3.28571 c 0.1685,-0.50549 0,-0.84249 -0.5055,-1.01099 l -3.2857,-1.01098 c -2.5275,-0.75824 -6.1502,-1.26374 -9.8571,-1.26374 -9.0989,0 -14.4066,4.12821 -14.4066,10.95237 0,5.56042 2.8645,8.84614 9.0989,10.44687 l 9.8571,2.78021"
           style="font-size:84.24895477px;font-weight:300;fill:#ffffff;font-family:Neris;-inkscape-font-specification:Neris Light"
           id="path2991" />
        <path
           d="m 1820.176,-141.2743 c 0.5055,-0.0842 0.674,-0.42125 0.5897,-0.92674 l -1.011,-3.36996 c -0.1685,-0.50549 -0.5055,-0.67399 -1.0109,-0.58974 l -2.5275,0.75824 c -2.359,0.75824 -4.9707,1.09523 -7.8352,1.09523 -6.9084,0 -11.4578,-4.1282 -12.5531,-11.20511 l 16.4286,-2.69596 c 7.5824,-1.26374 11.2893,-4.71795 11.2893,-10.61537 0,-7.83515 -5.7289,-12.46885 -15.249,-12.46885 -11.4579,0 -18.4505,8.08792 -18.4505,20.97799 0,12.97433 6.9084,21.06224 18.5347,21.06224 3.2015,0 6.1502,-0.337 9.0989,-1.26373 l 2.696,-0.75824 m -24.7692,-18.87177 c 0.2527,-10.78385 4.9707,-16.09155 12.8058,-16.09155 6.2344,0 9.8572,2.78022 9.8572,7.49816 0,3.20145 -2.2748,5.13918 -6.74,5.89742 l -15.923,2.69597"
           style="font-size:84.24895477px;font-weight:300;fill:#ffffff;font-family:Neris;-inkscape-font-specification:Neris Light"
           id="path2993" />
        <path
           d="m 1834.9393,-179.10208 c -0.5055,0.16849 -0.674,0.50549 -0.5055,1.01098 l 0.9267,3.28571 c 0.1685,0.5055 0.5055,0.67399 1.011,0.5055 l 2.9487,-0.84249 c 2.1063,-0.67399 4.718,-1.01099 7.6667,-1.01099 7.2454,0 11.2894,4.12821 11.2894,11.28936 l 0,1.09524 -12.7216,0 c -9.6887,0.0842 -14.8279,5.05494 -14.8279,12.38459 0,7.49815 4.9707,12.13185 13.4799,12.13185 6.2344,0 10.5311,-1.85348 13.3956,-5.47618 0.8425,-0.92674 1.4322,-1.01099 1.6849,0.0842 l 0.2528,3.7912 c 0.084,0.50549 0.337,0.75824 0.8425,0.75824 l 2.6117,0 c 0.5055,0 0.7582,-0.25275 0.7582,-0.75824 l 0,-24.0952 c 0,-10.19411 -6.4029,-16.3443 -16.6813,-16.3443 -3.5384,0 -6.5714,0.5055 -9.0146,1.26374 l -3.1172,0.92674 m 23.337,20.05125 0,1.09523 c 0,8.76189 -4.9707,13.73258 -13.6484,13.73258 -5.3919,0 -8.4249,-2.78022 -8.4249,-7.49815 0,-4.38095 2.9488,-7.32966 9.3517,-7.32966 l 12.7216,0"
           style="font-size:84.24895477px;font-weight:300;fill:#ffffff;font-family:Neris;-inkscape-font-specification:Neris Light"
           id="path2995" />
        <path
           d="m 1881.6014,-198.90059 c 0,-0.50549 -0.2528,-0.75824 -0.7583,-0.75824 l -3.9597,0 c -0.5055,0 -0.7582,0.25275 -0.7582,0.75824 l 0,51.56036 c 0,5.13918 2.8645,8.0879 7.6666,8.0879 0.9268,0 1.8535,-0.1685 2.696,-0.42124 0.4213,-0.1685 0.5898,-0.58975 0.4213,-1.01099 l -1.4323,-3.28571 c -0.1685,-0.42124 -0.5055,-0.58974 -0.9267,-0.42124 -0.2528,0.0842 -0.5055,0.0842 -0.7583,0.0842 -1.4322,0 -2.1904,-1.17948 -2.1904,-3.03296 l 0,-51.56036"
           style="font-size:84.24895477px;font-weight:300;fill:#ffffff;font-family:Neris;-inkscape-font-specification:Neris Light"
           id="path2997" />
        <path
           d="m 1900.252,-200.08007 c -2.2747,0 -3.707,1.34798 -3.707,3.70695 0,2.35897 1.4323,3.70695 3.707,3.70695 2.2747,0 3.6227,-1.34798 3.6227,-3.70695 0,-2.35897 -1.348,-3.70695 -3.6227,-3.70695 m 3.6227,20.38824 c 0,-0.50549 -0.2528,-0.75824 -0.7582,-0.75824 l -8.5934,0 c -0.5055,0 -0.7583,0.25275 -0.7583,0.75824 l 0,3.45421 c 0,0.50549 0.2528,0.75824 0.7583,0.75824 l 3.8754,0 0,34.62632 c 0,0.50549 0.2528,0.75824 0.7582,0.75824 l 3.9598,0 c 0.5054,0 0.7582,-0.25275 0.7582,-0.75824 l 0,-38.83877"
           style="font-size:84.24895477px;font-weight:300;fill:#ffffff;font-family:Neris;-inkscape-font-specification:Neris Light"
           id="path2999" />
        <path
           d="m 1933.1051,-181.29256 c -11.3736,0 -18.3663,8.08792 -18.3663,20.97799 0,12.97433 6.9927,21.06224 18.3663,21.06224 11.3736,0 18.3663,-8.08791 18.3663,-21.06224 0,-12.89007 -6.9927,-20.97799 -18.3663,-20.97799 m 0,5.05494 c 8.0879,0 12.9744,5.98169 12.9744,15.92305 0,10.02562 -4.8865,16.0073 -12.9744,16.0073 -8.0879,0 -12.8901,-5.98168 -12.8901,-16.0073 0,-9.94136 4.8022,-15.92305 12.8901,-15.92305"
           style="font-size:84.24895477px;font-weight:300;fill:#ffffff;font-family:Neris;-inkscape-font-specification:Neris Light"
           id="path3001" />
        <path
           d="m 1991.9201,-140.85306 c 0,0.50549 0.2528,0.75824 0.7583,0.75824 l 2.6117,0 c 0.5055,0 0.7582,-0.25275 0.7582,-0.75824 l 0,-38.83877 c 0,-0.50549 -0.2527,-0.75824 -0.7582,-0.75824 l -3.9597,0 c -0.5055,0 -0.7583,0.25275 -0.7583,0.75824 l 0,18.45052 c 0,10.69961 -4.8864,16.93404 -13.2271,16.93404 -6.2344,0 -9.9413,-4.38095 -9.9413,-11.7106 l 0,-23.67396 c 0,-0.50549 -0.2528,-0.75824 -0.7583,-0.75824 l -3.9597,0 c -0.5055,0 -0.7582,0.25275 -0.7582,0.75824 l 0,24.0952 c 0,10.10987 5.6447,16.3443 14.9121,16.3443 5.8131,0 10.2783,-2.27472 13.4798,-6.82416 0.5055,-0.67399 1.011,-0.67399 1.2637,0.0842 l 0.337,5.13918"
           style="font-size:84.24895477px;font-weight:300;fill:#ffffff;font-family:Neris;-inkscape-font-specification:Neris Light"
           id="path3003" />
        <path
           d="m 2026.9374,-157.11311 c 3.8755,1.17949 5.6447,3.03297 5.6447,6.15018 0,4.12819 -3.6227,6.65566 -9.8571,6.65566 -4.4652,0 -8.3407,-0.67399 -11.2052,-1.68497 l -2.1904,-0.75825 c -0.4213,-0.16849 -0.7583,0 -0.9268,0.42125 l -1.1795,3.36996 c -0.1684,0.50549 10e-5,0.84249 0.5055,1.01098 l 2.2748,0.75825 c 3.4542,1.26373 7.7509,1.93772 12.7216,1.93772 9.6886,0 15.3333,-4.38095 15.3333,-11.7106 0,-5.47618 -2.8645,-9.01464 -9.4359,-10.69962 l -9.7729,-2.78022 c -3.7912,-1.09523 -5.3919,-2.94871 -5.3919,-5.89742 0,-3.53846 3.2857,-5.89743 9.0146,-5.89743 2.9487,0 6.1502,0.42125 8.4249,1.09524 l 3.2015,0.92674 c 0.5055,0.16849 0.8425,-1e-5 1.011,-0.5055 l 0.9267,-3.28571 c 0.1685,-0.50549 0,-0.84249 -0.5055,-1.01099 l -3.2857,-1.01098 c -2.5275,-0.75824 -6.1502,-1.26374 -9.8571,-1.26374 -9.0989,0 -14.4066,4.12821 -14.4066,10.95237 0,5.56042 2.8645,8.84614 9.0989,10.44687 l 9.8571,2.78021"
           style="font-size:84.24895477px;font-weight:300;fill:#ffffff;font-family:Neris;-inkscape-font-specification:Neris Light"
           id="path3005" />
      </g>
    </g>
  </g>
</svg>
