<?xml version="1.0" encoding="UTF-8" standalone="no"?>
<svg
   xmlns:dc="http://purl.org/dc/elements/1.1/"
   xmlns:cc="http://creativecommons.org/ns#"
   xmlns:rdf="http://www.w3.org/1999/02/22-rdf-syntax-ns#"
   xmlns:svg="http://www.w3.org/2000/svg"
   xmlns="http://www.w3.org/2000/svg"
   xmlns:sodipodi="http://sodipodi.sourceforge.net/DTD/sodipodi-0.dtd"
   xmlns:inkscape="http://www.inkscape.org/namespaces/inkscape"
   version="1.1"
   x="0px"
   y="0px"
   viewBox="0 0 160 160"
   enable-background="new 0 0 100 99.864"
   xml:space="preserve"
   id="svg2"
   inkscape:version="0.91 r13725"
   sodipodi:docname="happy-developer.svg"
   width="160"
   height="160"><metadata
     id="metadata14"><rdf:RDF><cc:Work
         rdf:about=""><dc:format>image/svg+xml</dc:format><dc:type
           rdf:resource="http://purl.org/dc/dcmitype/StillImage" /><dc:title /></cc:Work></rdf:RDF></metadata><defs
     id="defs12" /><sodipodi:namedview
     pagecolor="#ffffff"
     bordercolor="#666666"
     borderopacity="1"
     objecttolerance="10"
     gridtolerance="10"
     guidetolerance="10"
     inkscape:pageopacity="0"
     inkscape:pageshadow="2"
     inkscape:window-width="1920"
     inkscape:window-height="1051"
     id="namedview10"
     showgrid="false"
     inkscape:zoom="3.0372305"
     inkscape:cx="25.512865"
     inkscape:cy="97.729986"
     inkscape:window-x="0"
     inkscape:window-y="0"
     inkscape:window-maximized="1"
     inkscape:current-layer="svg2" /><g
     id="g4232"
     transform="translate(5.5949473,-5.4624973)"
     style="fill:#29303f;fill-opacity:1"><path
       style="fill:#29303f;fill-opacity:1"
       inkscape:connector-curvature="0"
       id="path4"
       d="m 132.30885,100.5803 c -0.52797,-2.022477 -1.71635,-3.762904 -3.08702,-5.198929 0.92697,-4.048385 1.43086,-8.256711 1.43086,-12.578543 0,-5.56696 -0.82034,-10.943023 -2.33031,-16.019843 l 0,-12.00757 c 0,-24.412417 -21.69171,-29.38605 -26.77025,-30.213269 -4.863567,-6.046781 -11.38329,-9.113166 -19.387192,-9.113166 -9.770127,0 -18.807623,4.655471 -21.803497,6.370101 -3.855769,-1.422266 -7.534399,-2.141138 -10.958501,-2.141138 -11.918144,0 -18.633924,8.884435 -20.959079,14.48407 -4.048386,1.295002 -7.142288,3.814494 -9.226673,7.501724 -6.30303,11.175195 -0.815181,29.375728 -0.57785,30.147914 0.141023,0.464343 0.424788,0.837537 0.773906,1.128182 -0.564091,3.200529 -0.880533,6.493926 -0.880533,9.862995 0,3.897044 0.395552,7.699499 1.159139,11.369531 -1.405069,1.649278 -2.712109,3.749142 -3.19881,6.220481 -0.57269,2.94256 0.06879,5.86104 1.915846,8.65914 -0.626003,4.68299 0.266568,12.41172 7.212799,15.18231 0.505619,5.47237 3.467097,13.49003 12.03853,14.51674 1.377551,4.96504 5.364024,12.05229 13.374806,12.05229 0.588168,0 1.198693,-0.0396 1.816098,-0.11695 1.914126,1.56845 6.610872,4.79994 12.84855,4.78962 3.083583,0 6.122452,-0.78594 9.058134,-2.34751 3.279639,1.28984 6.359783,1.93476 9.183678,1.93476 l 0,0 c 7.560196,0 11.393608,-4.46457 12.965496,-7.00986 0.560651,0.0567 1.124742,0.0877 1.669916,0.0877 7.555037,0 11.428007,-5.64951 12.858867,-9.75809 8.64539,-0.98028 11.6189,-9.03234 12.12968,-14.52363 6.95311,-2.76714 7.84396,-10.50963 7.21452,-15.1823 2.13254,-3.29684 2.03279,-6.19469 1.52889,-8.09677 m -57.714427,19.597 c -10.89315,0 -19.619364,-6.78801 -23.359907,-16.35176 l 46.719813,0 C 94.212066,113.38585 85.484132,120.1773 74.594423,120.1773 M 120.72951,89.785175 c -1.09207,-0.402431 -2.22713,-0.624284 -3.39659,-0.624284 -4.26508,0 -7.94715,2.758543 -10.04013,4.729422 C 105.0691,91.921154 102.4791,90.891 99.66724,90.891 c -3.903924,0 -7.302228,1.977758 -9.046095,3.221166 -2.032792,-0.823779 -4.105139,-1.236529 -6.180925,-1.236529 -4.409542,0 -7.85944,1.867692 -9.789044,3.231485 -2.696631,-2.065467 -5.922957,-3.150655 -9.439927,-3.150655 -2.827335,0 -5.255678,0.694795 -6.679664,1.215892 -2.827335,-1.860813 -5.744098,-2.801538 -8.688379,-2.801538 -3.303716,0 -5.929835,1.202133 -7.599751,2.251205 -3.843731,-4.063863 -8.10881,-4.980511 -11.163157,-4.980511 -1.014676,0 -1.939923,0.106626 -2.768861,0.251089 -0.261408,-1.998396 -0.443706,-4.020869 -0.443706,-6.089776 0,-10.519955 3.541047,-20.207532 9.427888,-28.023973 1.196974,0.115226 2.404266,0.192616 3.6064,0.192616 13.680928,0 25.095174,-7.627268 32.65537,-12.671412 2.651916,-1.771383 4.937517,-3.301996 6.665906,-4.086221 1.172897,-0.533134 2.350953,-0.933845 3.546207,-1.210732 21.380428,4.280557 37.532698,23.184485 37.532698,45.799722 0.009,2.380189 -0.22874,4.698466 -0.57269,6.982347" /><path
       style="fill:#29303f;fill-opacity:1"
       inkscape:connector-curvature="0"
       id="path6"
       d="m 64.640279,74.27095 c 0,3.836851 -3.109381,6.946231 -6.946232,6.946231 -3.836851,0 -6.946231,-3.10766 -6.946231,-6.946231 0,-3.835131 3.10938,-6.946231 6.946231,-6.946231 3.836851,0 6.946232,3.1111 6.946232,6.946231" /><path
       style="fill:#29303f;fill-opacity:1"
       inkscape:connector-curvature="0"
       id="path8"
       d="m 98.379117,74.27095 c 0,3.836851 -3.1111,6.946231 -6.946232,6.946231 -3.836851,0 -6.946231,-3.10766 -6.946231,-6.946231 0,-3.835131 3.10938,-6.946231 6.946231,-6.946231 3.836852,0 6.946232,3.1111 6.946232,6.946231" /></g></svg>