<?xml version="1.0" encoding="UTF-8" standalone="no"?>
<!-- Generator: Adobe Illustrator 16.0.0, SVG Export Plug-In . SVG Version: 6.00 Build 0)  -->

<svg
   xmlns:dc="http://purl.org/dc/elements/1.1/"
   xmlns:cc="http://creativecommons.org/ns#"
   xmlns:rdf="http://www.w3.org/1999/02/22-rdf-syntax-ns#"
   xmlns:svg="http://www.w3.org/2000/svg"
   xmlns="http://www.w3.org/2000/svg"
   xmlns:sodipodi="http://sodipodi.sourceforge.net/DTD/sodipodi-0.dtd"
   xmlns:inkscape="http://www.inkscape.org/namespaces/inkscape"
   version="1.1"
   id="Layer_1"
   x="0px"
   y="0px"
   width="1000"
   height="1000"
   viewBox="0 0 1000 1000"
   enable-background="new 0 0 1000 800"
   xml:space="preserve"
   inkscape:version="0.48.4 r9939"
   sodipodi:docname="logo-placetag-off.svg"><metadata
     id="metadata33"><rdf:RDF><cc:Work
         rdf:about=""><dc:format>image/svg+xml</dc:format><dc:type
           rdf:resource="http://purl.org/dc/dcmitype/StillImage" /><dc:title /></cc:Work></rdf:RDF></metadata><defs
     id="defs31" /><sodipodi:namedview
     pagecolor="#ffffff"
     bordercolor="#666666"
     borderopacity="1"
     objecttolerance="10"
     gridtolerance="10"
     guidetolerance="10"
     inkscape:pageopacity="0"
     inkscape:pageshadow="2"
     inkscape:window-width="1280"
     inkscape:window-height="749"
     id="namedview29"
     showgrid="false"
     inkscape:zoom="0.295"
     inkscape:cx="-645.04439"
     inkscape:cy="155.98318"
     inkscape:window-x="0"
     inkscape:window-y="25"
     inkscape:window-maximized="1"
     inkscape:current-layer="Layer_1"
     fit-margin-top="-0.4"
     fit-margin-left="0"
     fit-margin-right="0"
     fit-margin-bottom="0" /><rect
     x="-22.725"
     y="199.6105"
     display="none"
     width="1019.949"
     height="829.45801"
     id="rect3"
     style="fill:#5e93a1;display:none" /><g
     id="g5"
     style="fill:#637c8f;fill-opacity:0.44827586"
     transform="translate(-0.5,679.47453)"
     inkscape:export-filename="/home/arkadiusz/Projects/sealious-gh-pages/img/logo-placetag.svg.png"
     inkscape:export-xdpi="20"
     inkscape:export-ydpi="20"><g
       id="g7"
       style="fill:#637c8f;fill-opacity:0.44827586"><g
         id="g9"
         style="fill:#637c8f;fill-opacity:0.44827586"><path
           d="m 70.814,10.232 c 12.316,0 23.03,1.427 32.133,4.279 9.104,2.854 16.645,6.909 22.623,12.161 5.979,5.255 10.438,11.595 13.383,19.022 2.943,7.429 4.415,15.717 4.415,24.865 0,9.059 -1.584,17.346 -4.755,24.864 -3.172,7.52 -7.813,13.994 -13.927,19.428 -6.114,5.436 -13.678,9.671 -22.691,12.705 -9.013,3.036 -19.408,4.552 -31.182,4.552 h -31.25 v 72.826 H 13.341 V 10.232 h 57.473 z m 0,100.952 c 7.518,0 14.152,-0.995 19.905,-2.99 5.752,-1.992 10.598,-4.776 14.538,-8.355 3.94,-3.579 6.906,-7.857 8.9,-12.84 1.991,-4.98 2.989,-10.462 2.989,-16.44 0,-12.409 -3.828,-22.101 -11.48,-29.077 C 98.01,34.507 86.393,31.02 70.814,31.02 h -31.25 v 80.164 h 31.25 l 0,0 z"
           id="path11"
           style="fill:#637c8f;fill-opacity:0.44827586"
           inkscape:connector-curvature="0" /><path
           d="M 195,4.797 V 204.933 H 170.815 V 4.797 H 195 z"
           id="path13"
           style="fill:#637c8f;fill-opacity:0.44827586"
           inkscape:connector-curvature="0" /><path
           d="m 230.596,86.727 c 7.608,-7.336 15.805,-12.815 24.592,-16.44 8.786,-3.622 18.523,-5.435 29.212,-5.435 7.703,0 14.543,1.271 20.517,3.805 5.979,2.537 11.01,6.069 15.083,10.598 4.075,4.53 7.155,10.01 9.239,16.44 2.082,6.432 3.125,13.498 3.125,21.196 v 88.043 H 321.63 c -2.353,0 -4.167,-0.383 -5.435,-1.155 -1.27,-0.77 -2.264,-2.287 -2.989,-4.552 l -2.718,-13.043 c -3.62,3.352 -7.151,6.318 -10.594,8.899 -3.443,2.582 -7.065,4.755 -10.874,6.522 -3.8,1.766 -7.855,3.125 -12.156,4.076 -4.308,0.951 -9.083,1.426 -14.335,1.426 -5.346,0 -10.373,-0.748 -15.083,-2.242 -4.711,-1.494 -8.81,-3.736 -12.296,-6.726 -3.488,-2.989 -6.25,-6.77 -8.288,-11.345 -2.039,-4.573 -3.058,-9.986 -3.058,-16.237 0,-5.435 1.494,-10.665 4.484,-15.692 2.989,-5.028 7.833,-9.488 14.538,-13.384 6.701,-3.893 15.443,-7.086 26.223,-9.579 10.779,-2.489 24.003,-3.917 39.674,-4.28 V 116.89 c 0,-10.688 -2.31,-18.771 -6.93,-24.252 -4.62,-5.479 -11.369,-8.221 -20.244,-8.221 -5.979,0 -10.984,0.747 -15.014,2.241 -4.032,1.495 -7.519,3.172 -10.462,5.028 -2.945,1.858 -5.481,3.533 -7.609,5.027 -2.13,1.495 -4.236,2.242 -6.317,2.242 -1.631,0 -3.036,-0.428 -4.212,-1.29 -1.179,-0.86 -2.174,-1.924 -2.99,-3.194 l -4.349,-7.744 z m 78.126,56.249 c -11.142,0.364 -20.63,1.247 -28.465,2.65 -7.84,1.405 -14.225,3.239 -19.158,5.502 -4.938,2.265 -8.515,4.938 -10.733,8.017 -2.221,3.081 -3.33,6.522 -3.33,10.326 0,3.625 0.589,6.749 1.767,9.375 1.176,2.628 2.785,4.78 4.822,6.455 2.038,1.677 4.437,2.899 7.201,3.668 2.762,0.771 5.729,1.154 8.9,1.154 4.256,0 8.152,-0.428 11.684,-1.291 3.532,-0.859 6.861,-2.106 9.987,-3.736 3.125,-1.631 6.11,-3.578 8.967,-5.843 2.853,-2.263 5.637,-4.845 8.356,-7.744 v -28.533 h 0.002 z"
           id="path15"
           style="fill:#637c8f;fill-opacity:0.44827586"
           inkscape:connector-curvature="0" /><path
           d="m 464.97,91.753 c -0.727,0.998 -1.451,1.767 -2.174,2.311 -0.729,0.543 -1.722,0.815 -2.993,0.815 -1.354,0 -2.853,-0.565 -4.482,-1.698 -1.628,-1.131 -3.647,-2.378 -6.046,-3.736 -2.401,-1.359 -5.346,-2.604 -8.832,-3.737 -3.489,-1.132 -7.769,-1.698 -12.84,-1.698 -6.792,0 -12.771,1.201 -17.935,3.6 -5.167,2.402 -9.492,5.867 -12.976,10.394 -3.488,4.531 -6.114,10.009 -7.881,16.44 -1.77,6.432 -2.653,13.634 -2.653,21.604 0,8.334 0.955,15.739 2.855,22.214 1.901,6.478 4.596,11.913 8.084,16.305 3.486,4.395 7.699,7.745 12.636,10.055 4.936,2.309 10.482,3.463 16.645,3.463 5.887,0 10.732,-0.7 14.538,-2.106 3.805,-1.402 6.953,-2.964 9.443,-4.687 2.489,-1.72 4.573,-3.283 6.252,-4.688 1.674,-1.402 3.325,-2.106 4.959,-2.106 1.99,0 3.531,0.771 4.618,2.31 l 6.793,8.832 c -2.992,3.715 -6.389,6.885 -10.189,9.511 -3.805,2.628 -7.905,4.824 -12.297,6.589 -4.395,1.77 -8.987,3.057 -13.791,3.873 -4.802,0.815 -9.696,1.222 -14.674,1.222 -8.61,0 -16.6,-1.586 -23.982,-4.755 -7.384,-3.169 -13.793,-7.766 -19.224,-13.791 -5.435,-6.022 -9.695,-13.427 -12.772,-22.215 -3.081,-8.785 -4.62,-18.795 -4.62,-30.026 0,-10.236 1.431,-19.702 4.28,-28.397 2.854,-8.696 7.019,-16.189 12.5,-22.487 5.479,-6.294 12.228,-11.208 20.244,-14.741 8.017,-3.533 17.233,-5.299 27.65,-5.299 9.694,0 18.231,1.562 25.611,4.688 7.384,3.125 13.926,7.541 19.633,13.247 l -6.38,8.694 z"
           id="path17"
           style="fill:#637c8f;fill-opacity:0.44827586"
           inkscape:connector-curvature="0" /><path
           d="m 608.178,185.639 c -2.987,3.625 -6.568,6.772 -10.732,9.443 -4.167,2.674 -8.628,4.87 -13.384,6.59 -4.756,1.723 -9.671,3.013 -14.739,3.873 -5.078,0.858 -10.104,1.29 -15.084,1.29 -9.511,0 -18.273,-1.609 -26.291,-4.824 -8.019,-3.214 -14.945,-7.925 -20.787,-14.13 -5.843,-6.203 -10.396,-13.879 -13.655,-23.029 -3.261,-9.149 -4.892,-19.655 -4.892,-31.522 0,-9.6 1.47,-18.564 4.416,-26.901 2.94,-8.333 7.177,-15.558 12.704,-21.672 5.522,-6.114 12.272,-10.913 20.242,-14.401 7.971,-3.487 16.938,-5.231 26.902,-5.231 8.242,0 15.877,1.383 22.899,4.144 7.016,2.764 13.088,6.749 18.202,11.957 5.119,5.209 9.13,11.64 12.023,19.294 2.902,7.654 4.354,16.372 4.354,26.154 0,3.805 -0.408,6.342 -1.224,7.609 -0.82,1.27 -2.355,1.903 -4.619,1.903 h -91.985 c 0.271,8.695 1.472,16.26 3.601,22.69 2.129,6.434 5.095,11.799 8.9,16.101 3.8,4.303 8.329,7.52 13.586,9.647 5.252,2.128 11.143,3.193 17.663,3.193 6.066,0 11.3,-0.701 15.693,-2.106 4.393,-1.403 8.175,-2.922 11.347,-4.552 3.172,-1.631 5.821,-3.146 7.949,-4.552 2.128,-1.403 3.962,-2.106 5.505,-2.106 1.988,0 3.525,0.771 4.612,2.31 l 6.794,8.828 z m -19.566,-64.538 c 0,-5.615 -0.793,-10.755 -2.383,-15.421 -1.578,-4.664 -3.893,-8.695 -6.929,-12.092 -3.035,-3.397 -6.724,-6.023 -11.069,-7.881 -4.349,-1.855 -9.285,-2.785 -14.81,-2.785 -11.594,0 -20.77,3.375 -27.515,10.123 -6.749,6.748 -10.938,16.1 -12.572,28.057 l 75.278,-0.001 0,0 z"
           id="path19"
           style="fill:#637c8f;fill-opacity:0.44827586"
           inkscape:connector-curvature="0" /><path
           d="m 681.276,207.106 c -10.868,0 -19.225,-3.033 -25.067,-9.103 -5.84,-6.066 -8.761,-14.81 -8.761,-26.223 V 87.541 h -16.581 c -1.446,0 -2.67,-0.428 -3.666,-1.291 -0.996,-0.86 -1.493,-2.195 -1.493,-4.008 v -9.646 l 22.553,-2.854 5.572,-42.527 c 0.271,-1.359 0.884,-2.467 1.835,-3.329 0.95,-0.86 2.193,-1.291 3.734,-1.291 h 12.23 v 47.419 h 39.809 v 17.527 h -39.809 v 82.609 c 0,5.797 1.4,10.101 4.216,12.908 2.807,2.807 6.43,4.211 10.869,4.211 2.533,0 4.733,-0.339 6.589,-1.019 1.854,-0.68 3.465,-1.427 4.824,-2.242 1.357,-0.816 2.511,-1.563 3.466,-2.242 0.953,-0.68 1.787,-1.019 2.516,-1.019 1.268,0 2.4,0.771 3.396,2.311 l 7.064,11.548 c -4.172,3.896 -9.194,6.953 -15.081,9.171 -5.894,2.22 -11.965,3.329 -18.215,3.329 z"
           id="path21"
           style="fill:#637c8f;fill-opacity:0.44827586"
           inkscape:connector-curvature="0" /><path
           d="m 732.904,86.727 c 7.608,-7.336 15.807,-12.815 24.593,-16.44 8.789,-3.622 18.521,-5.435 29.217,-5.435 7.699,0 14.539,1.271 20.52,3.805 5.972,2.537 11.003,6.069 15.073,10.598 4.081,4.53 7.157,10.01 9.24,16.44 2.083,6.432 3.125,13.498 3.125,21.196 v 88.043 H 823.94 c -2.356,0 -4.176,-0.383 -5.438,-1.155 -1.269,-0.77 -2.265,-2.287 -2.993,-4.552 l -2.712,-13.043 c -3.625,3.352 -7.159,6.318 -10.601,8.899 -3.443,2.582 -7.063,4.755 -10.871,6.522 -3.803,1.766 -7.857,3.125 -12.159,4.076 -4.304,0.951 -9.081,1.426 -14.333,1.426 -5.345,0 -10.371,-0.748 -15.083,-2.242 -4.71,-1.494 -8.805,-3.736 -12.291,-6.726 -3.488,-2.989 -6.251,-6.77 -8.287,-11.345 -2.039,-4.573 -3.058,-9.986 -3.058,-16.237 0,-5.435 1.495,-10.665 4.482,-15.692 2.995,-5.028 7.834,-9.488 14.539,-13.384 6.703,-3.893 15.444,-7.086 26.222,-9.579 10.78,-2.489 24.004,-3.917 39.676,-4.28 V 116.89 c 0,-10.688 -2.312,-18.771 -6.93,-24.252 -4.619,-5.479 -11.366,-8.221 -20.243,-8.221 -5.979,0 -10.984,0.747 -15.014,2.241 -4.031,1.495 -7.521,3.172 -10.465,5.028 -2.943,1.858 -5.48,3.533 -7.606,5.027 -2.131,1.495 -4.236,2.242 -6.318,2.242 -1.629,0 -3.036,-0.428 -4.212,-1.29 -1.178,-0.86 -2.172,-1.924 -2.993,-3.194 l -4.348,-7.744 z m 78.126,56.249 c -11.142,0.364 -20.629,1.247 -28.466,2.65 -7.834,1.405 -14.226,3.239 -19.156,5.502 -4.938,2.265 -8.518,4.938 -10.734,8.017 -2.222,3.081 -3.326,6.522 -3.326,10.326 0,3.625 0.589,6.749 1.769,9.375 1.175,2.628 2.783,4.78 4.823,6.455 2.042,1.677 4.438,2.899 7.198,3.668 2.763,0.771 5.73,1.154 8.901,1.154 4.255,0 8.15,-0.428 11.679,-1.291 3.535,-0.859 6.866,-2.106 9.987,-3.736 3.121,-1.631 6.114,-3.578 8.968,-5.843 2.854,-2.263 5.639,-4.845 8.355,-7.744 l 0.002,-28.533 0,0 z"
           id="path23"
           style="fill:#637c8f;fill-opacity:0.44827586"
           inkscape:connector-curvature="0" /><path
           d="m 987.658,72.732 v 8.967 c 0,2.989 -1.901,4.892 -5.707,5.707 l -15.624,2.038 c 3.077,5.979 4.619,12.592 4.619,19.836 0,6.704 -1.289,12.796 -3.873,18.275 -2.579,5.481 -6.137,10.169 -10.665,14.063 -4.527,3.896 -9.966,6.885 -16.304,8.968 -6.341,2.084 -13.228,3.125 -20.649,3.125 -6.435,0 -12.502,-0.769 -18.208,-2.309 -2.901,1.813 -5.119,3.736 -6.659,5.774 -1.537,2.038 -2.309,4.099 -2.309,6.182 0,3.261 1.337,5.73 4.007,7.405 2.672,1.674 6.184,2.877 10.535,3.6 4.348,0.726 9.307,1.179 14.876,1.359 5.568,0.183 11.277,0.475 17.121,0.883 5.843,0.408 11.547,1.11 17.118,2.105 5.57,0.999 10.529,2.629 14.879,4.893 4.348,2.264 7.855,5.389 10.529,9.375 2.671,3.986 4.008,9.151 4.008,15.489 0,5.888 -1.472,11.593 -4.412,17.12 -2.946,5.523 -7.181,10.438 -12.702,14.741 -5.529,4.302 -12.298,7.746 -20.313,10.327 -8.016,2.582 -17.051,3.872 -27.104,3.872 -10.056,0 -18.843,-0.997 -26.355,-2.988 -7.525,-1.994 -13.771,-4.667 -18.754,-8.016 -4.979,-3.353 -8.717,-7.225 -11.204,-11.617 -2.494,-4.395 -3.739,-8.991 -3.739,-13.791 0,-6.793 2.126,-12.547 6.387,-17.255 4.26,-4.708 10.102,-8.468 17.526,-11.277 -4.076,-1.811 -7.314,-4.233 -9.715,-7.269 -2.397,-3.033 -3.6,-7.133 -3.6,-12.296 0,-1.992 0.357,-4.053 1.085,-6.182 0.729,-2.127 1.836,-4.258 3.33,-6.386 1.487,-2.127 3.324,-4.144 5.498,-6.045 2.174,-1.903 4.708,-3.579 7.61,-5.028 -6.793,-3.805 -12.097,-8.853 -15.896,-15.15 -3.801,-6.294 -5.705,-13.609 -5.705,-21.943 0,-6.701 1.29,-12.793 3.874,-18.274 2.576,-5.479 6.179,-10.144 10.799,-13.995 4.619,-3.848 10.119,-6.814 16.507,-8.899 6.392,-2.082 13.383,-3.125 20.994,-3.125 5.977,0 11.546,0.66 16.714,1.971 5.161,1.314 9.872,3.239 14.129,5.774 h 37.353 v -0.004 z m -24.593,139.674 c 0,-3.352 -0.951,-6.069 -2.853,-8.152 -1.908,-2.082 -4.463,-3.712 -7.679,-4.891 -3.217,-1.176 -6.958,-2.015 -11.21,-2.513 -4.256,-0.497 -8.762,-0.884 -13.518,-1.155 -4.751,-0.272 -9.577,-0.543 -14.465,-0.815 -4.892,-0.271 -9.603,-0.725 -14.131,-1.359 -5.072,2.357 -9.218,5.323 -12.431,8.9 -3.217,3.578 -4.824,7.766 -4.824,12.568 0,3.078 0.787,5.955 2.379,8.628 1.582,2.671 4.007,4.981 7.268,6.929 3.263,1.946 7.359,3.487 12.299,4.62 4.933,1.131 10.754,1.698 17.457,1.698 6.522,0 12.365,-0.591 17.527,-1.767 5.165,-1.178 9.534,-2.853 13.108,-5.026 3.577,-2.175 6.317,-4.756 8.226,-7.746 1.896,-2.989 2.847,-6.298 2.847,-9.919 z m -43.61,-74.728 c 4.888,0 9.188,-0.679 12.902,-2.038 3.714,-1.359 6.842,-3.26 9.377,-5.707 2.533,-2.446 4.438,-5.367 5.706,-8.763 1.267,-3.397 1.901,-7.133 1.901,-11.209 0,-8.424 -2.561,-15.125 -7.676,-20.109 -5.118,-4.979 -12.524,-7.472 -22.212,-7.472 -9.786,0 -17.237,2.493 -22.35,7.472 -5.119,4.984 -7.678,11.686 -7.678,20.109 0,4.076 0.656,7.813 1.971,11.209 1.312,3.396 3.232,6.317 5.773,8.763 2.536,2.446 5.66,4.348 9.378,5.707 3.71,1.358 8.013,2.038 12.908,2.038 z"
           id="path25"
           style="fill:#637c8f;fill-opacity:0.44827586"
           inkscape:connector-curvature="0" /></g></g></g><path
     d="m 504.758,65.99847 c -151.955,0 -275.136,123.183 -275.136,275.138 0,151.952 123.181,275.135 275.136,275.135 151.953,0 275.135,-123.183 275.135,-275.135 0,-151.955 -123.182,-275.138 -275.135,-275.138 z m 51.716,392.019 c -51.42,44.796 -51.42,44.796 -51.42,44.796 0,0 0,0 -55.912,-47.146 -36.283,-30.596 -83.962,-83.704 -83.962,-125.883 0,-74.271 62.491,-134.477 139.579,-134.477 77.088,0 139.575,60.208 139.575,134.477 0.003,41.78 -52.445,97.383 -87.86,128.233 z"
     id="path27"
     style="fill:#637c8f;fill-opacity:0.44827586"
     inkscape:connector-curvature="0"
     inkscape:export-filename="/home/arkadiusz/Projects/sealious-gh-pages/img/logo-placetag.svg.png"
     inkscape:export-xdpi="20"
     inkscape:export-ydpi="20" /></svg>